<svg width="68" height="40" viewBox="0 0 68 40" fill="none" xmlns="http://www.w3.org/2000/svg">
<g clip-path="url(#clip0_54_114)">
<path d="M43.5754 17.7584C43.8618 14.7559 45.1402 11.8416 47.2949 9.72454C48.8309 8.21553 50.7144 7.11889 52.4386 5.82915C54.1458 4.55216 56.2847 2.70606 56.461 0.448649C56.4802 0.202415 56.7845 0.100017 56.955 0.27865C57.3742 0.717861 57.9105 1.21471 58.0592 1.59017C58.4219 2.50499 58.3723 3.57678 58.1033 4.50846C57.7038 5.89224 56.8755 7.10508 56.2273 8.39124C55.4115 10.0101 54.8643 11.9327 55.9423 13.6047C56.953 15.1722 58.9649 15.6882 60.6394 14.8666C62.6212 13.8942 62.695 11.76 62.2479 9.86333C62.2011 9.66477 62.4189 9.51031 62.592 9.61842C65.6738 11.5435 67.4641 15.732 67.8927 19.1684C68.3703 22.9986 67.2379 27.0038 64.8255 30.0168C64.1009 30.9219 63.1362 31.8353 61.93 31.6237C61.219 31.499 60.4214 31.1388 59.7041 30.9494C57.8616 30.4631 50.2404 28.4202 48.2587 27.9517C46.6174 27.5639 45.6101 26.2592 44.8469 24.7622C43.7508 22.6124 43.3465 20.1572 43.5754 17.7584Z" fill="#EBB34C"/>
<path d="M56.7182 1.59017C57.0474 2.50499 57.0024 3.57678 56.7583 4.50846C56.3957 5.89224 55.6437 7.10508 55.0552 8.39124C54.3146 10.0101 53.8178 11.9327 54.7965 13.6047C55.5526 14.8964 56.9259 15.4732 58.2362 15.1768C57.3208 14.987 56.4866 14.4484 55.9426 13.6047C54.8645 11.9327 55.4117 10.0101 56.2276 8.39124C56.8758 7.10508 57.7042 5.89224 58.1036 4.50846C58.3725 3.57692 58.4222 2.50499 58.0595 1.59017C57.9106 1.21471 57.3744 0.717861 56.9553 0.27865C56.7847 0.100017 56.4803 0.202415 56.4612 0.448649C56.4457 0.646939 56.4143 0.841774 56.3702 1.03369C56.5285 1.23264 56.6582 1.42336 56.7182 1.59017Z" fill="#E69824"/>
<path d="M67.8925 19.1686C67.464 15.7321 65.6736 11.5437 62.5918 9.6186C62.4188 9.51049 62.2009 9.66495 62.2477 9.8635C62.3448 10.2754 62.4172 10.6984 62.451 11.1183C64.2626 13.2848 65.338 16.4599 65.6445 19.1686C66.078 22.9988 65.05 27.004 62.8602 30.017C62.4364 30.6002 61.9215 31.1849 61.3164 31.4718C61.5252 31.5346 61.731 31.589 61.93 31.6238C63.1362 31.8353 64.1008 30.922 64.8255 30.0169C67.2376 27.004 68.3701 22.9988 67.8925 19.1686Z" fill="#E69824"/>
<path d="M35.9632 17.5734C36.1836 17.2913 36.6296 17.4104 36.6916 17.763C36.7736 18.2295 36.9095 18.682 37.134 19.0908C37.5035 19.7636 38.1485 20.3034 38.8817 20.3605C39.615 20.4176 40.3939 19.8906 40.5182 19.1236C40.6507 18.3068 40.0818 17.5768 39.6854 16.8622C38.9276 15.4959 38.7437 13.7874 39.1918 12.2759C39.5891 10.936 40.5263 9.61261 41.681 8.86767C41.7646 8.81375 41.8654 8.89649 41.8323 8.99026C41.5121 9.89896 42.1244 11.9639 42.3326 12.5051C42.8425 13.831 43.9068 14.8794 45.0669 15.6593C46.5355 16.6465 48.204 17.3037 49.6852 18.2719C51.4724 19.4399 52.9751 21.0779 53.842 23.0291C54.4428 24.3812 54.7269 25.8835 54.6223 27.3617C54.5409 28.5117 54.571 29.1495 53.4908 29.2809C51.9591 29.4673 50.2841 29.2779 48.742 29.2764C45.947 29.2738 43.1519 29.2711 40.3569 29.2685C39.0285 29.7818 37.4783 29.4152 36.3544 28.5068C35.2306 27.5983 34.5099 26.2077 34.1841 24.7511C33.621 22.2342 34.4048 19.5672 35.9632 17.5734Z" fill="#F7E365"/>
<path d="M66.8134 30.1714C66.4792 29.418 65.7952 28.8828 64.9835 28.7396L27.0664 22.0538C26.7301 21.9948 26.3862 22.1064 26.1491 22.3526C25.912 22.5987 25.8131 22.9466 25.8852 23.2806L27.6299 31.3749C28.0223 33.1949 29.4605 34.5798 31.294 34.903L58.7325 39.7413C59.0005 39.7885 59.2681 39.8115 59.5332 39.8115C61.0816 39.8115 62.536 39.0246 63.3823 37.6791L66.6463 32.4889C67.0851 31.7911 67.1475 30.9249 66.8134 30.1714Z" fill="#607882"/>
<path d="M66.8136 30.1715C66.4794 29.4181 65.7954 28.8828 64.9837 28.7397L60.7958 28.0012C61.3328 28.2537 61.769 28.6916 62.0157 29.2482C62.3536 30.0097 62.2904 30.8855 61.8469 31.5909L58.5473 36.8378C57.6918 38.198 56.2215 38.9936 54.6563 38.9936C54.5938 38.9936 54.5311 38.992 54.4683 38.9895L58.7329 39.7414C59.0009 39.7887 59.2685 39.8117 59.5336 39.8117C61.0819 39.8117 62.5364 39.0248 63.3826 37.6793L66.6466 32.4891C67.0853 31.7912 67.1477 30.925 66.8136 30.1715Z" fill="#495959"/>
<path d="M28.1451 29.9249C27.6721 29.9249 27.2466 29.5959 27.143 29.1147L25.4619 21.3174C25.2482 20.3273 24.4655 19.5737 23.468 19.3979L17.9459 18.4242C17.3877 18.3258 17.015 17.7936 17.1134 17.2354C17.2118 16.6772 17.7448 16.3046 18.3022 16.403L23.8243 17.3766C25.6473 17.6982 27.0774 19.075 27.468 20.8845L29.1493 28.6822C29.2687 29.2362 28.9163 29.7821 28.3624 29.9015C28.2895 29.9174 28.2167 29.9249 28.1451 29.9249Z" fill="#607882"/>
<path d="M18.3015 16.4044L17.8917 18.728C17.7757 19.3861 17.1481 19.8256 16.49 19.7095L9.25588 18.4339C8.40057 18.2831 7.52122 18.3455 6.69579 18.6154C5.89307 18.8778 5.03802 18.9384 4.20622 18.7917L2.48311 18.4879C0.849114 18.1997 -0.24194 16.6415 0.0461298 15.0075C0.3342 13.3735 1.89249 12.2825 3.52648 12.5705L17.3199 15.0027C17.9781 15.1187 18.4174 15.7462 18.3015 16.4044Z" fill="#DF646E"/>
</g>
<defs>
<clipPath id="clip0_54_114">
<rect width="68" height="40" fill="white"/>
</clipPath>
</defs>
</svg>